<svg width="24" height="24" viewBox="0 0 24 24" fill="none" xmlns="http://www.w3.org/2000/svg">
<path d="M8 2V5" stroke="#3871C1" stroke-miterlimit="10" stroke-linecap="round" stroke-linejoin="round"/>
<path d="M16 2V5" stroke="#3871C1" stroke-miterlimit="10" stroke-linecap="round" stroke-linejoin="round"/>
<path d="M3.5 9.08984H20.5" stroke="#3871C1" stroke-miterlimit="10" stroke-linecap="round" stroke-linejoin="round"/>
<path d="M22.002 19C22.002 19.75 21.792 20.46 21.422 21.06C20.732 22.22 19.462 23 18.002 23C16.992 23 16.072 22.63 15.372 22C15.062 21.74 14.792 21.42 14.582 21.06C14.212 20.46 14.002 19.75 14.002 19C14.002 16.79 15.792 15 18.002 15C19.202 15 20.272 15.53 21.002 16.36C21.622 17.07 22.002 17.99 22.002 19Z" stroke="#3871C1" stroke-miterlimit="10" stroke-linecap="round" stroke-linejoin="round"/>
<path d="M16.4414 19.0015L17.4314 19.9915L19.5614 18.0215" stroke="#3871C1" stroke-linecap="round" stroke-linejoin="round"/>
<path d="M21 8.5V16.36C20.27 15.53 19.2 15 18 15C15.79 15 14 16.79 14 19C14 19.75 14.21 20.46 14.58 21.06C14.79 21.42 15.06 21.74 15.37 22H8C4.5 22 3 20 3 17V8.5C3 5.5 4.5 3.5 8 3.5H16C19.5 3.5 21 5.5 21 8.5Z" stroke="#3871C1" stroke-miterlimit="10" stroke-linecap="round" stroke-linejoin="round"/>
<path d="M11.9945 13.6992H12.0035" stroke="#3871C1" stroke-linecap="round" stroke-linejoin="round"/>
<path d="M8.29492 13.7012H8.30301" stroke="#3871C1" stroke-linecap="round" stroke-linejoin="round"/>
<path d="M8.29492 16.7012H8.30301" stroke="#3871C1" stroke-linecap="round" stroke-linejoin="round"/>
</svg>
